<svg width="990" height="181" viewBox="0 0 990 181" fill="none" xmlns="http://www.w3.org/2000/svg">
<mask id="mask0_14_20" style="mask-type:luminance" maskUnits="userSpaceOnUse" x="0" y="0" width="990" height="181">
<path d="M990 0H0V180.716H990V0Z" fill="white"/>
</mask>
<g mask="url(#mask0_14_20)">
<path d="M263.338 139.591L240.59 100.378H219.655V139.591H201.973V31.9363H245.035C254.671 31.9363 262.841 35.2888 269.571 42.019C276.276 48.724 279.654 56.919 279.654 66.555C279.654 73.434 277.667 79.692 273.743 85.403C269.795 91.09 264.654 95.213 258.296 97.796L282.758 139.641H263.387L263.338 139.591ZM219.655 48.55V84.534H245.035C249.754 84.534 253.752 82.796 257.03 79.294C260.308 75.818 261.947 71.546 261.947 66.53C261.947 61.513 260.308 57.242 257.03 53.765C253.752 50.288 249.754 48.525 245.035 48.525H219.655V48.55Z" fill="white"/>
<path d="M327.459 141.578C316.184 141.578 306.598 137.679 298.701 129.881C290.804 122.083 286.855 112.497 286.855 101.123C286.855 89.749 290.804 80.163 298.701 72.366C306.598 64.568 316.184 60.669 327.459 60.669C338.733 60.669 348.443 64.568 356.291 72.366C364.138 80.163 368.062 89.749 368.062 101.123C368.062 112.497 364.138 122.083 356.291 129.881C348.443 137.679 338.833 141.578 327.459 141.578ZM310.398 118.507C315.017 123.126 320.704 125.436 327.459 125.436C334.214 125.436 339.925 123.126 344.52 118.507C349.114 113.888 351.448 108.102 351.448 101.123C351.448 94.145 349.139 88.359 344.52 83.74C339.9 79.12 334.214 76.811 327.459 76.811C320.704 76.811 314.992 79.12 310.398 83.74C305.804 88.359 303.469 94.145 303.469 101.123C303.469 108.102 305.779 113.888 310.398 118.507Z" fill="white"/>
<path d="M419.418 141.578C408.144 141.578 398.558 137.679 390.661 129.881C382.764 122.083 378.815 112.497 378.815 101.123C378.815 89.749 382.764 80.163 390.661 72.366C398.558 64.568 408.144 60.669 419.418 60.669C430.693 60.669 440.403 64.568 448.25 72.366C456.098 80.163 460.022 89.749 460.022 101.123C460.022 112.497 456.098 122.083 448.25 129.881C440.403 137.679 430.792 141.578 419.418 141.578ZM402.357 118.507C406.977 123.126 412.663 125.436 419.418 125.436C426.173 125.436 431.885 123.126 436.479 118.507C441.073 113.888 443.408 108.102 443.408 101.123C443.408 94.145 441.098 88.359 436.479 83.74C431.86 79.12 426.173 76.811 419.418 76.811C412.663 76.811 406.952 79.12 402.357 83.74C397.763 88.359 395.429 94.145 395.429 101.123C395.429 108.102 397.738 113.888 402.357 118.507Z" fill="white"/>
<path d="M512.62 45.918C500.526 44.8 494.466 49.866 494.466 61.141V62.68H512.62V78.673H494.466V139.566H477.852V78.673H466.156V62.68H477.852V61.141C477.852 50.586 480.807 42.565 486.693 37.077C492.579 31.5885 501.221 29.2044 512.62 29.9246V45.918Z" fill="white"/>
<path d="M536.311 83.814C536.311 86.347 537.727 88.359 540.558 89.824C543.389 91.289 546.816 92.63 550.789 93.872C554.763 95.113 558.835 96.355 563.007 97.646C567.179 98.938 570.656 101.322 573.462 104.799C576.269 108.275 577.659 112.646 577.659 117.936C577.659 125.311 574.803 131.122 569.116 135.319C563.43 139.516 556.277 141.627 547.66 141.627C540.061 141.627 533.554 140.038 528.141 136.859C522.702 133.68 518.753 129.285 516.295 123.623L530.599 115.328C533.256 122.704 538.968 126.404 547.66 126.404C556.352 126.404 560.723 123.523 560.723 117.787C560.723 115.328 559.307 113.317 556.501 111.777C553.67 110.237 550.292 108.846 546.294 107.63C542.321 106.413 538.248 105.146 534.076 103.855C529.904 102.563 526.402 100.254 523.596 96.926C520.765 93.598 519.374 89.377 519.374 84.236C519.374 77.158 522.056 71.472 527.445 67.175C532.834 62.879 539.515 60.719 547.511 60.719C553.869 60.719 559.531 62.134 564.497 64.94C569.464 67.771 573.289 71.695 575.946 76.711L561.939 84.559C559.282 78.723 554.465 75.793 547.486 75.793C544.307 75.793 541.65 76.488 539.49 77.854C537.329 79.22 536.261 81.231 536.261 83.864L536.311 83.814Z" fill="white"/>
<path d="M649.503 122.679H693.335V139.591H631.822V31.9363H649.503V122.679Z" fill="white"/>
<path d="M739.178 141.578C727.904 141.578 718.318 137.679 710.421 129.881C702.524 122.083 698.575 112.497 698.575 101.123C698.575 89.749 702.524 80.163 710.421 72.366C718.318 64.568 727.904 60.669 739.178 60.669C750.453 60.669 760.163 64.568 768.011 72.366C775.858 80.163 779.782 89.749 779.782 101.123C779.782 112.497 775.858 122.083 768.011 129.881C760.163 137.679 750.552 141.578 739.178 141.578ZM722.093 118.507C726.712 123.126 732.399 125.436 739.178 125.436C745.958 125.436 751.645 123.126 756.239 118.507C760.858 113.888 763.168 108.102 763.168 101.123C763.168 94.145 760.858 88.359 756.239 83.74C751.62 79.12 745.933 76.811 739.178 76.811C732.424 76.811 726.712 79.12 722.093 83.74C717.474 88.359 715.164 94.145 715.164 101.123C715.164 108.102 717.474 113.888 722.093 118.507Z" fill="white"/>
<path d="M831.138 141.578C819.541 141.578 809.88 137.679 802.157 129.881C794.409 122.083 790.535 112.497 790.535 101.123C790.535 89.749 794.409 80.039 802.157 72.291C809.905 64.543 819.565 60.669 831.138 60.669C838.613 60.669 845.442 62.457 851.601 66.058C857.76 69.659 862.354 74.477 865.433 80.511L851.129 88.806C849.391 85.105 846.734 82.225 843.207 80.114C839.681 78.003 835.583 76.96 830.989 76.96C824.234 76.96 818.547 79.269 814.003 83.889C809.433 88.508 807.148 94.244 807.148 101.123C807.148 108.002 809.433 113.739 814.003 118.358C818.572 122.977 824.234 125.287 830.989 125.287C835.509 125.287 839.582 124.219 843.207 122.058C846.833 119.898 849.59 117.042 851.427 113.441L865.731 121.586C862.453 127.745 857.735 132.613 851.576 136.189C845.417 139.765 838.613 141.578 831.113 141.578H831.138Z" fill="white"/>
<path d="M937.402 62.68H954.016V139.591H937.402V128.515C931.144 137.232 922.179 141.578 910.482 141.578C899.928 141.578 890.888 137.654 883.413 129.806C875.938 121.959 872.188 112.398 872.188 101.123C872.188 89.849 875.938 80.163 883.413 72.366C890.888 64.568 899.928 60.669 910.482 60.669C922.179 60.669 931.144 64.965 937.402 73.583V62.656V62.68ZM895.731 118.73C900.35 123.399 906.136 125.734 913.114 125.734C920.093 125.734 925.879 123.399 930.498 118.73C935.117 114.062 937.427 108.201 937.427 101.123C937.427 94.046 935.117 88.185 930.498 83.516C925.879 78.847 920.093 76.513 913.114 76.513C906.136 76.513 900.35 78.847 895.731 83.516C891.112 88.185 888.802 94.046 888.802 101.123C888.802 108.201 891.112 114.062 895.731 118.73Z" fill="white"/>
<path d="M973.411 139.591V27.3171H990.025V139.591H973.411Z" fill="white"/>
<path d="M88.1352 118.581C90.4199 117.216 91.5871 116.396 92.8536 115.8C111.007 107.431 121.586 89.874 119.624 71.348C117.538 51.853 104.054 37.052 84.3356 32.6316C58.7568 26.895 32.7558 47.482 32.3336 74.129C32.0604 92.233 32.2839 110.312 32.2591 128.416C32.2591 130.825 32.0604 133.258 31.9362 135.667L30.2227 136.586C25.5788 131.669 20.3885 127.149 16.3654 121.785C-0.89407 98.764 -4.86748 73.434 6.2084 46.837C17.2346 20.3389 37.5238 4.5197 66.1821 0.695299C111.529 -5.389 151.809 29.7261 151.759 75.395C151.759 95.039 144.856 112.448 131.321 126.926C126.876 131.694 122.282 136.362 117.489 140.758C116.272 141.876 113.093 142.869 112.398 142.198C104.302 134.674 96.504 126.801 88.1352 118.581Z" fill="white"/>
<path d="M52.7221 75.644C52.6228 62.358 62.8791 52.076 76.1156 52.126C89.054 52.201 99.261 62.407 99.261 75.271C99.261 88.607 89.0291 98.888 75.8424 98.839C62.9785 98.789 52.7966 88.582 52.6973 75.619L52.7221 75.644Z" fill="#CAFB81"/>
<path d="M54.2867 113.242C60.967 119.997 66.952 126.106 72.9866 132.165C80.3871 139.616 87.713 147.14 95.287 154.367C98.541 157.471 99.137 159.706 95.511 163.009C90.0722 167.951 84.9813 173.265 79.9152 178.555C77.0842 181.51 74.7746 181.336 72.0181 178.481C66.6291 172.893 60.967 167.579 55.6029 161.941C54.2619 160.526 52.896 158.39 52.8712 156.577C52.6725 143.142 52.7967 129.732 52.8712 116.297C52.8712 115.75 53.343 115.229 54.2619 113.217L54.2867 113.242Z" fill="#CAFB81"/>
</g>
</svg>
